HIERARCHY
ROOT pelvis
{
  OFFSET 0 100 0
  CHANNELS 6 Xposition Yposition Zposition Zrotation Xrotation Yrotation
  JOINT pelvis_right_femur
  {
    OFFSET -10.78128 -3.44521 -0.5502486
    CHANNELS 3 Zrotation Xrotation Yrotation
    JOINT right_femur_tibia
    {
      OFFSET -0.8047443 -44.0398 -0.1307829
      CHANNELS 3 Zrotation Xrotation Yrotation
      JOINT right_tibia_foot
      {
        OFFSET 3.006224 -47.83518 -5
        CHANNELS 3 Zrotation Xrotation Yrotation
        End Site
        {
          OFFSET 0 -5 15
        }
      }
    }
  }
  JOINT pelvis_left_femur
  {
    OFFSET 10.78128 -3.44521 -0.5502486
    CHANNELS 3 Zrotation Xrotation Yrotation
    JOINT left_femur_tibia
    {
      OFFSET 0.8047443 -44.0398 -0.1307829
      CHANNELS 3 Zrotation Xrotation Yrotation
      JOINT left_tibia_foot
      {
        OFFSET -4.370144 -48.10324 -4.275266
        CHANNELS 3 Zrotation Xrotation Yrotation
        End Site
        {
          OFFSET 0 -5 15
        }
      }
    }
  }
  JOINT pelvis_spine1
  {
    OFFSET 0 6.468898 -3.129235
    CHANNELS 3 Zrotation Xrotation Yrotation
    JOINT spine1
    {
      OFFSET 0 23.15396 4.99043
      CHANNELS 3 Zrotation Xrotation Yrotation
      JOINT spine2
      {
        OFFSET 0 20.79997 -5.064912
        CHANNELS 3 Zrotation Xrotation Yrotation
        JOINT neck
        {
          OFFSET 0 14.38658 9.616178
          CHANNELS 3 Zrotation Xrotation Yrotation
          End Site
          {
            OFFSET 0 20 0
          }
        }
      }
      JOINT right_manubrium
      {
        OFFSET -5.722621 16.35077 3.967754
        CHANNELS 3 Zrotation Xrotation Yrotation
        JOINT right_clavicle
        {
          OFFSET -13.16364 1.694482 -4.693211
          CHANNELS 3 Zrotation Xrotation Yrotation
          JOINT right_humerus
          {
            OFFSET -28.5034 -0.3100689 -2.792744
            CHANNELS 3 Zrotation Xrotation Yrotation
            JOINT right_radius
            {
              OFFSET -25.15693 0.02248979 -1.271978
              CHANNELS 3 Zrotation Xrotation Yrotation
              End Site
              {
                OFFSET -15 0 0
              }
            }
          }
        }
      }
      JOINT left_manubrium
      {
        OFFSET 5.722621 16.35077 3.967754
        CHANNELS 3 Zrotation Xrotation Yrotation
        JOINT left_clavicle
        {
          OFFSET 13.16364 1.694482 -4.693211
          CHANNELS 3 Zrotation Xrotation Yrotation
          JOINT left_humerus
          {
            OFFSET 29.39168 -1.063119 -2.237045
            CHANNELS 3 Zrotation Xrotation Yrotation
            JOINT left_radius
            {
              OFFSET 24.59957 -0.9528479 0.9047498
              CHANNELS 3 Zrotation Xrotation Yrotation
              End Site
              {
                OFFSET 15 -0 -0
              }
            }
          }
        }
      }
    }
  }
}
MOTION
Frames: 13
Frame Time: 0.0416666666667
-1223.48 117.8988 2634.217 -8.469136 -3.088386 -71.61813 5.718897 11.22965 1.554041 -0 8.379134 -0 -7.083045 -9.645094 -3.894973 0.7059778 -16.90464 -4.325952 -0 35.01332 -0 -5.018665 -6.814265 20.64553 1.377685 -1.153317 6.434634 1.474147 13.47821 -8.263798 1.187518 19.3893 1.473928 -1.812025 -22.1446 5.207862 -4.936575 -29.98623 12.8371 93.35244 21.8545 -12.48773 -0 0 24.92691 -19.12847 11.97608 11.59357 1.629424 -20.69109 -3.502319 -88.41028 10.06225 31.8659 0 0 -13.68972 8.077023 16.38816 0.3657353
-1228.597 117.2063 2636.071 -7.932974 -2.441477 -72.30921 5.758223 13.89515 1.18098 -0 8.401635 -0 -7.615772 -12.34011 -2.923525 1.763448 -20.13231 -3.926265 -0 26.55797 -0 -4.070454 -6.421489 20.83037 1.599863 -1.308251 6.904603 1.291356 13.71035 -7.933663 1.206704 18.98717 0.8152991 -2.285153 -21.51719 4.798895 -4.806443 -31.01886 12.62152 92.30757 21.50162 -10.87085 -0 0 26.93919 -19.41006 13.13137 12.85208 1.231397 -20.20948 -3.684857 -88.90116 9.814138 34.10175 0 0 -13.26916 7.309456 16.23063 2.050357
-1233.77 116.2852 2638.079 -7.293463 -1.731866 -72.9858 5.684086 15.97635 0.8659129 -0 9.170011 -0 -7.82083 -14.45359 -2.063554 2.456934 -22.06876 -3.701915 -0 19.10166 -0 -3.190205 -6.000573 20.71674 1.774993 -1.467377 7.326076 1.110505 13.88462 -7.603574 1.213393 18.60512 0.2963554 -2.654335 -20.95805 4.46564 -4.683363 -31.88434 12.40833 91.35397 21.19345 -9.437341 -0 0 28.70504 -19.67969 14.18835 14.0451 0.8979462 -19.76334 -3.828676 -89.34842 9.603528 36.07368 0 0 -13.12031 6.558241 15.97638 3.716371
-1239.14 115.3347 2640.285 -6.689312 -1.170202 -73.65417 5.319244 17.71008 0.5665579 -0 10.79285 -0 -7.801288 -15.56641 -1.303033 2.515007 -22.83517 -3.885038 -0 13.80376 -0 -2.550203 -5.717176 20.442 1.901165 -1.614513 7.675355 0.935438 14.0074 -7.291642 1.214117 18.27666 -0.05573311 -2.895749 -20.50035 4.222928 -4.582918 -32.51742 12.21709 90.58835 20.94232 -8.310666 -0 0 30.07758 -19.92593 15.0653 15.07814 0.6400872 -19.39878 -3.945506 -89.72856 9.456644 37.65669 0 0 -13.24856 5.848641 15.64339 5.285148
-1244.817 114.5257 2642.696 -6.26478 -0.9314622 -74.29099 4.584353 19.30076 0.244807 -0 13.25213 -0 -7.675542 -15.2446 -0.6097568 1.840091 -22.66924 -4.581697 -0 11.06456 -0 -2.289509 -5.721409 20.20152 1.982214 -1.734431 7.93649 0.7704684 14.0935 -7.015846 1.216625 18.02982 -0.2353272 -3.001223 -20.16495 4.075451 -4.515639 -32.88308 12.06657 90.08573 20.75604 -7.579015 -0 0 30.95598 -20.13882 15.70238 15.87243 0.460574 -19.15553 -4.053792 -90.02335 9.395253 38.76279 0 0 -13.62291 5.206206 15.25919 6.679008
-1250.839 113.9738 2645.278 -6.127433 -1.091281 -74.8495 3.531054 20.79 -0.0791167 -0 16.5052 -0 -7.544875 -13.23079 0.01380999 0.5459465 -21.80313 -5.722003 -0 10.5868 -0 -2.427204 -6.076202 20.15315 2.025506 -1.81645 8.101039 0.6224197 14.1581 -6.793399 1.226549 17.88003 -0.2551914 -2.978073 -19.95909 4.018899 -4.4832 -32.97858 11.97082 89.88218 20.63758 -7.280634 -0 0 31.30071 -20.30869 16.07336 16.37945 0.3571155 -19.05985 -4.169422 -90.21783 9.430231 39.34767 0 0 -14.19297 4.657034 14.8577 7.828781
-1257.163 113.7423 2647.975 -6.314196 -1.605676 -75.27194 2.317775 21.983 -0.3355832 -0 20.54776 -0 -7.482196 -9.608422 0.5142165 -1.096956 -20.38746 -7.093116 -0 11.65608 -0 -2.823637 -6.742929 20.33943 2.039637 -1.856427 8.16635 0.5011312 14.21075 -6.63978 1.245636 17.828 -0.1397559 -2.845277 -19.87849 4.042712 -4.479532 -32.82636 11.9364 89.97292 20.58539 -7.405734 -0 0 31.12871 -20.42521 16.18605 16.58466 0.3250839 -19.12207 -4.299514 -90.29802 9.55757 39.40742 0 0 -14.90921 4.227174 14.47601 8.679349
-1263.676 113.8534 2650.717 -6.785307 -2.334265 -75.50451 1.156937 22.49283 -0.4694557 -0 25.3523 -0 -7.526185 -4.856077 0.8175115 -2.759889 -18.48509 -8.42493 -0 13.44445 -0 -3.236816 -7.612357 20.68474 2.03253 -1.856534 8.133798 0.4179343 14.25374 -6.567149 1.272047 17.86284 0.08244808 -2.627579 -19.91164 4.13351 -4.495152 -32.46283 11.96223 90.32308 20.59473 -7.910344 -0 0 30.49517 -20.4779 16.07241 16.50137 0.3589158 -19.33822 -4.441383 -90.25126 9.758722 38.96918 0 0 -15.73515 3.940707 14.15049 9.192421
-1270.226 114.2926 2653.439 -7.444479 -3.092302 -75.51247 0.2537531 21.89499 -0.4972484 -0 30.70634 -0 -7.676566 0.2470102 0.8752187 -4.15575 -16.1143 -9.487082 -0 15.22401 -0 -3.440567 -8.557429 21.05268 2.010018 -1.823344 8.007758 0.3830939 14.28348 -6.582615 1.301795 17.96785 0.3848727 -2.349858 -20.04447 4.278232 -4.521708 -31.92861 12.04134 90.88287 20.6594 -8.732582 -0 0 29.47396 -20.45785 15.77444 16.16021 0.452788 -19.69313 -4.584926 -90.0694 10.00491 38.08067 0 0 -16.64723 3.81765 13.91205 9.346054
-1276.667 115.0042 2656.093 -8.170058 -3.712256 -75.292 -0.2583507 19.91224 -0.5028569 -0 36.07778 -0 -7.896441 4.842648 0.689532 -5.111775 -13.30451 -10.15721 -0 16.48101 -0 -3.325549 -9.487032 21.30973 1.974884 -1.765325 7.79532 0.4035444 14.29263 -6.687032 1.330185 18.12603 0.7464192 -2.033426 -20.264 4.466279 -4.554747 -31.26289 12.16325 91.59909 20.77323 -9.80438 -0 0 28.14431 -20.35983 15.3318 15.59938 0.6012104 -20.16281 -4.715543 -89.75304 10.26332 36.80221 0 0 -17.62608 3.872778 13.78185 9.131766
-1282.894 115.8885 2658.645 -8.841575 -4.093605 -74.87442 -0.3667576 16.53303 -0.5822692 -0 40.63884 -0 -8.122806 8.254487 0.3082985 -5.595131 -10.13482 -10.43338 -0 16.95843 -0 -2.927407 -10.37978 21.35826 1.926404 -1.690685 7.506399 0.4815452 14.27168 -6.874578 1.352705 18.32361 1.152356 -1.694548 -20.56008 4.690394 -4.594366 -30.50155 12.31589 92.42093 20.93096 -11.05713 -0 0 26.58523 -20.18412 14.77466 14.85847 0.7995832 -20.71547 -4.816193 -89.31472 10.50315 35.20261 0 0 -18.64513 4.115122 13.76849 8.551416
-1288.862 116.8088 2661.084 -9.354757 -4.22224 -74.31947 -0.1772091 12.01372 -0.7973871 -0 43.47926 -0 -8.282145 10.17018 -0.1964489 -5.689155 -6.739954 -10.39479 -0 16.64626 -0 -2.383371 -11.28279 21.14098 1.860382 -1.605964 7.153918 0.6141755 14.21026 -7.133038 1.365441 18.55151 1.593459 -1.344531 -20.92526 4.946457 -4.644272 -29.67738 12.48694 93.30143 21.12854 -12.42338 -0 0 24.87494 -19.93769 14.12182 13.97583 1.044404 -21.31204 -4.868783 -88.78023 10.70075 33.35801 0 0 -19.66186 4.547042 13.86687 7.616157
-1294.596 117.6135 2663.415 -9.62875 -4.154325 -73.70005 0.1443685 6.784737 -1.171681 -0 43.90983 -0 -8.308233 10.6711 -0.7492168 -5.540323 -3.285009 -10.14415 -0 15.73019 -0 -1.857683 -12.27613 20.63775 1.769769 -1.515423 6.75377 0.7934104 14.09866 -7.444661 1.36527 18.80513 2.064148 -0.9906429 -21.3534 5.232506 -4.709946 -28.82105 12.66455 94.19721 21.36286 -13.83719 -0 0 23.09165 -19.63484 13.383 12.9885 1.332795 -21.9075 -4.855818 -88.18723 10.84349 31.35166 0 0 -20.61468 5.162044 14.05848 6.348701
